{
    "asset" : {
        "generator" : "Khronos glTF Blender I/O v0.9.12",
        "version" : "2.0"
    },
    "scene" : 0,
    "scenes" : [
        {
            "name" : "Scene",
            "nodes" : [
                0,
                1,
                2,
                3
            ]
        }
    ],
    "nodes" : [
        {
            "name" : "Light",
            "rotation" : [
                0.16907575726509094,
                0.7558803558349609,
                -0.27217137813568115,
                0.570947527885437
            ],
            "translation" : [
                4.076245307922363,
                5.903861999511719,
                -1.0054539442062378
            ]
        },
        {
            "name" : "Camera",
            "rotation" : [
                0.483536034822464,
                0.33687159419059753,
                -0.20870360732078552,
                0.7804827094078064
            ],
            "translation" : [
                7.358891487121582,
                4.958309173583984,
                6.925790786743164
            ]
        },
        {
            "name" : "CINEMA_4D_Editor",
            "rotation" : [
                0.5505139231681824,
                0.35542523860931396,
                -0.2786889374256134,
                0.702096700668335
            ],
            "scale" : [
                0.009999999776482582,
                0.009999999776482582,
                0.009999999776482582
            ],
            "translation" : [
                8.913628578186035,
                4.565571308135986,
                5.706040382385254
            ]
        },
        {
            "mesh" : 0,
            "name" : "grp1",
            "rotation" : [
                0,
                -0.7071067094802856,
                0,
                0.7071068286895752
            ],
            "scale" : [
                0.009999999776482582,
                0.009999999776482582,
                0.009999999776482582
            ],
            "translation" : [
                0,
                0.056204985827207565,
                0
            ]
        }
    ],
    "meshes" : [
        {
            "name" : "Mesh",
            "primitives" : [
                {
                    "attributes" : {
                        "POSITION" : 0,
                        "NORMAL" : 1,
                        "TEXCOORD_0" : 2
                    },
                    "indices" : 3
                }
            ]
        }
    ],
    "accessors" : [
        {
            "bufferView" : 0,
            "componentType" : 5126,
            "count" : 6184,
            "max" : [
                72.22313690185547,
                332.753173828125,
                484.0404357910156
            ],
            "min" : [
                -72.22100830078125,
                1.528290033340454,
                -277.95947265625
            ],
            "type" : "VEC3"
        },
        {
            "bufferView" : 1,
            "componentType" : 5126,
            "count" : 6184,
            "type" : "VEC3"
        },
        {
            "bufferView" : 2,
            "componentType" : 5126,
            "count" : 6184,
            "type" : "VEC2"
        },
        {
            "bufferView" : 3,
            "componentType" : 5123,
            "count" : 6246,
            "type" : "SCALAR"
        }
    ],
    "bufferViews" : [
        {
            "buffer" : 0,
            "byteLength" : 74208,
            "byteOffset" : 0
        },
        {
            "buffer" : 0,
            "byteLength" : 74208,
            "byteOffset" : 74208
        },
        {
            "buffer" : 0,
            "byteLength" : 49472,
            "byteOffset" : 148416
        },
        {
            "buffer" : 0,
            "byteLength" : 12492,
            "byteOffset" : 197888
        }
    ],
    "buffers" : [
        {
            "byteLength" : 210380,
            "uri" : "cat.bin"
        }
    ]
}
